<svg width="240" height="150" viewBox="0 0 240 150" fill="none" xmlns="http://www.w3.org/2000/svg">
  <defs>
    <linearGradient id="g" x1="40" y1="18" x2="200" y2="120" gradientUnits="userSpaceOnUse">
      <stop stop-color="#36B7FF"/>
      <stop offset="1" stop-color="#0069B8"/>
    </linearGradient>
    <filter id="s" x="-20%" y="-20%" width="140%" height="140%"><feDropShadow dx="0" dy="8" stdDeviation="7" flood-color="#009DFF" flood-opacity="0.28"/></filter>
  </defs>
  <path d="M120 10 204 36v49c0 18-11 34-29 44l-55 31-55-31c-18-10-29-26-29-44V36l84-26Z" fill="#08151C" stroke="url(#g)" stroke-width="5" filter="url(#s)"/>
  <path d="M75 78c0-20 19-37 48-37 25 0 44 12 44 31 0 13-9 24-22 30 2 4 6 8 10 11h-23c-4-3-7-7-8-12H96c-5 5-12 9-20 12H54c10-7 19-17 21-35Z" fill="#F5FBFF"/>
  <path d="M89 78c5-12 18-20 34-20 11 0 20 3 26 9" stroke="#0B5E91" stroke-width="5" stroke-linecap="round"/>
  <circle cx="148" cy="67" r="4" fill="#071016"/>
  <path d="M164 83h20M160 96h16M56 43h20M64 52h12" stroke="#36B7FF" stroke-width="5" stroke-linecap="round"/>
  <text x="120" y="127" text-anchor="middle" font-family="Arial, Helvetica, sans-serif" font-size="29" font-weight="900" fill="#F5FBFF" letter-spacing="1.5">ОПТХОЛОД</text>
  <text x="120" y="144" text-anchor="middle" font-family="Arial, Helvetica, sans-serif" font-size="11" font-weight="800" fill="#36B7FF" letter-spacing="2">ЗАМОРОЗКА ОПТОМ</text>
</svg>